<?xml version="1.0" encoding="utf-8"?>
<!-- Generator: Adobe Illustrator 26.2.1, SVG Export Plug-In . SVG Version: 6.00 Build 0)  -->
<svg version="1.1" id="Layer_1" xmlns="http://www.w3.org/2000/svg" xmlns:xlink="http://www.w3.org/1999/xlink" x="0px" y="0px"
	 viewBox="0 0 266.3 53.9" style="enable-background:new 0 0 266.3 53.9;" xml:space="preserve">
<style type="text/css">
	.st0{fill:#542E0F;}
	.st1{fill:#B94726;}
	.st2{fill:#FFFFFF;}
	.st3{fill:none;stroke:#FFFFFF;stroke-width:1.0044;stroke-linecap:round;stroke-miterlimit:10;}
</style>
<g>
	<g>
		<path class="st0" d="M93.9,41.1C93.9,41.2,93.9,41.2,93.9,41.1c-0.1,0.1-0.1,0.1-0.1,0.1s-0.1,0-0.1,0s-0.1,0-0.2,0
			c-0.1,0-0.1,0-0.1,0c0,0-0.1,0-0.1,0c0,0-0.1,0-0.1,0c0,0,0,0-0.1,0c0,0,0,0,0,0s0,0,0,0l-1.6-4.4c0-0.1,0-0.1,0-0.1
			c0,0,0-0.1,0-0.1c0,0,0.1,0,0.1,0c0,0,0.1,0,0.2,0c0.1,0,0.1,0,0.2,0s0.1,0,0.1,0s0,0,0.1,0c0,0,0,0,0,0.1l1.4,4h0l1.3-4
			c0,0,0,0,0-0.1s0,0,0.1,0c0,0,0.1,0,0.1,0c0,0,0.1,0,0.2,0c0.1,0,0.1,0,0.2,0c0,0,0.1,0,0.1,0c0,0,0,0,0,0.1c0,0,0,0.1,0,0.1
			L93.9,41.1z"/>
		<path class="st0" d="M98.9,39.9c0,0.2,0,0.4-0.1,0.6c-0.1,0.2-0.2,0.3-0.3,0.4c-0.1,0.1-0.3,0.2-0.5,0.3s-0.4,0.1-0.6,0.1
			c-0.2,0-0.3,0-0.4,0c-0.1,0-0.3-0.1-0.4-0.1c-0.1,0-0.2-0.1-0.3-0.1C96,41,96,41,96,40.9c0,0,0-0.1-0.1-0.1s0-0.1,0-0.2
			c0-0.1,0-0.1,0-0.1s0-0.1,0-0.1s0,0,0,0c0,0,0,0,0.1,0c0,0,0.1,0,0.1,0.1c0.1,0,0.1,0.1,0.2,0.1c0.1,0.1,0.2,0.1,0.4,0.1
			s0.3,0.1,0.5,0.1c0.1,0,0.3,0,0.4-0.1c0.1,0,0.2-0.1,0.3-0.2c0.1-0.1,0.1-0.2,0.2-0.2c0-0.1,0.1-0.2,0.1-0.3c0-0.1,0-0.2-0.1-0.3
			c-0.1-0.1-0.1-0.2-0.2-0.3c-0.1-0.1-0.2-0.1-0.3-0.2c-0.1-0.1-0.3-0.1-0.4-0.2s-0.3-0.1-0.4-0.2c-0.1-0.1-0.2-0.2-0.3-0.3
			c-0.1-0.1-0.2-0.2-0.2-0.4S96,37.8,96,37.7c0-0.2,0-0.4,0.1-0.5s0.2-0.3,0.3-0.4c0.1-0.1,0.3-0.2,0.5-0.2c0.2-0.1,0.4-0.1,0.6-0.1
			c0.1,0,0.2,0,0.3,0c0.1,0,0.2,0,0.3,0.1s0.2,0.1,0.3,0.1c0.1,0,0.1,0.1,0.1,0.1s0,0,0,0.1s0,0,0,0.1c0,0,0,0,0,0.1
			c0,0,0,0.1,0,0.1c0,0,0,0.1,0,0.1c0,0,0,0.1,0,0.1c0,0,0,0,0,0.1c0,0,0,0,0,0c0,0-0.1,0-0.1-0.1c-0.1,0-0.1-0.1-0.2-0.1
			C98,37.1,98,37,97.8,37c-0.1,0-0.2-0.1-0.4-0.1c-0.1,0-0.3,0-0.4,0.1c-0.1,0-0.2,0.1-0.2,0.1c-0.1,0.1-0.1,0.1-0.1,0.2
			c0,0.1,0,0.2,0,0.3c0,0.1,0,0.2,0.1,0.3c0.1,0.1,0.1,0.2,0.2,0.3c0.1,0.1,0.2,0.1,0.4,0.2c0.1,0.1,0.3,0.1,0.4,0.2
			s0.3,0.1,0.4,0.2c0.1,0.1,0.2,0.2,0.4,0.3s0.2,0.2,0.2,0.4S98.9,39.7,98.9,39.9z"/>
		<path class="st0" d="M101.7,41.1C101.7,41.2,101.6,41.2,101.7,41.1c-0.1,0.1-0.1,0.1-0.1,0.1s-0.1,0-0.1,0c0,0-0.1,0-0.2,0
			c-0.1,0-0.1,0-0.1,0c0,0-0.1,0-0.1,0c0,0-0.1,0-0.1,0c0,0,0,0-0.1,0s0,0,0,0s0,0,0,0l-1.6-4.4c0-0.1,0-0.1,0-0.1s0-0.1,0-0.1
			c0,0,0.1,0,0.1,0c0,0,0.1,0,0.2,0c0.1,0,0.1,0,0.2,0s0.1,0,0.1,0s0,0,0,0c0,0,0,0,0,0.1l1.4,4h0l1.3-4c0,0,0,0,0-0.1
			c0,0,0,0,0.1,0c0,0,0.1,0,0.1,0s0.1,0,0.2,0c0.1,0,0.1,0,0.2,0c0,0,0.1,0,0.1,0c0,0,0,0,0,0.1s0,0.1,0,0.1L101.7,41.1z"/>
		<path class="st0" d="M105.1,39.4c0,0.1,0,0.2,0,0.2c0,0-0.1,0.1-0.1,0.1h-1.6c0,0-0.1,0-0.1-0.1c0,0,0-0.1,0-0.2s0-0.2,0-0.2
			s0.1-0.1,0.1-0.1h1.6c0,0,0,0,0.1,0c0,0,0,0,0,0c0,0,0,0,0,0.1C105.1,39.3,105.1,39.3,105.1,39.4z"/>
		<path class="st0" d="M108.8,41c0,0,0,0.1,0,0.1c0,0,0,0.1,0,0.1c0,0,0,0,0,0c0,0,0,0-0.1,0h-2.8c-0.1,0-0.1,0-0.2-0.1
			c0,0-0.1-0.1-0.1-0.2v-0.1c0,0,0-0.1,0-0.1s0-0.1,0-0.1s0-0.1,0.1-0.1c0,0,0-0.1,0.1-0.1L108,37h-2.2c0,0,0,0-0.1,0c0,0,0,0,0,0
			c0,0,0,0,0-0.1s0-0.1,0-0.1c0-0.1,0-0.1,0-0.1c0,0,0-0.1,0-0.1c0,0,0,0,0,0c0,0,0,0,0.1,0h2.7c0.1,0,0.1,0,0.2,0.1
			c0,0,0.1,0.1,0.1,0.2v0.1c0,0,0,0.1,0,0.1s0,0.1,0,0.1s0,0.1-0.1,0.1c0,0,0,0.1-0.1,0.1l-2.2,3.4h2.4c0,0,0.1,0,0.1,0.1
			S108.8,40.9,108.8,41z"/>
		<path class="st0" d="M112.3,41c0,0,0,0.1,0,0.1c0,0,0,0.1,0,0.1c0,0,0,0,0,0c0,0,0,0-0.1,0h-2.3c-0.1,0-0.1,0-0.2-0.1
			c-0.1,0-0.1-0.1-0.1-0.2v-4.2c0-0.1,0-0.2,0.1-0.2c0.1,0,0.1-0.1,0.2-0.1h2.3c0,0,0,0,0.1,0c0,0,0,0,0,0c0,0,0,0.1,0,0.1
			s0,0.1,0,0.1c0,0,0,0.1,0,0.1s0,0.1,0,0.1c0,0,0,0,0,0c0,0,0,0-0.1,0h-1.9v1.5h1.6c0,0,0,0,0.1,0c0,0,0,0,0,0c0,0,0,0,0,0.1
			s0,0.1,0,0.1c0,0,0,0.1,0,0.1c0,0,0,0.1,0,0.1c0,0,0,0,0,0c0,0,0,0-0.1,0h-1.6v1.7h1.9c0,0,0,0,0.1,0c0,0,0,0,0,0c0,0,0,0,0,0.1
			C112.3,40.9,112.3,40.9,112.3,41z"/>
		<path class="st0" d="M116.5,39.9c0,0.2,0,0.3-0.1,0.4c0,0.1-0.1,0.2-0.2,0.3c-0.1,0.1-0.2,0.2-0.3,0.3c-0.1,0.1-0.2,0.1-0.3,0.2
			s-0.3,0.1-0.4,0.1c-0.1,0-0.3,0-0.5,0h-1.3c-0.1,0-0.1,0-0.2-0.1c-0.1,0-0.1-0.1-0.1-0.2v-4.2c0-0.1,0-0.2,0.1-0.2
			c0.1,0,0.1-0.1,0.2-0.1h1.1c0.3,0,0.5,0,0.7,0.1c0.2,0.1,0.3,0.1,0.5,0.2s0.2,0.2,0.3,0.4c0.1,0.2,0.1,0.3,0.1,0.5
			c0,0.1,0,0.2,0,0.3s-0.1,0.2-0.1,0.3c-0.1,0.1-0.1,0.2-0.2,0.2s-0.2,0.1-0.3,0.2c0.1,0,0.3,0.1,0.4,0.1c0.1,0.1,0.2,0.1,0.3,0.2
			c0.1,0.1,0.2,0.2,0.2,0.4S116.5,39.7,116.5,39.9z M115.5,37.7c0-0.1,0-0.2,0-0.3s-0.1-0.2-0.2-0.2c-0.1-0.1-0.2-0.1-0.3-0.2
			c-0.1,0-0.3-0.1-0.4-0.1H114v1.5h0.7c0.2,0,0.3,0,0.4-0.1s0.2-0.1,0.3-0.2c0.1-0.1,0.1-0.2,0.1-0.3S115.5,37.8,115.5,37.7z
			 M115.8,39.9c0-0.1,0-0.3-0.1-0.4s-0.1-0.2-0.2-0.3c-0.1-0.1-0.2-0.1-0.3-0.2c-0.1,0-0.3-0.1-0.5-0.1H114v1.7h0.9
			c0.1,0,0.3,0,0.4-0.1c0.1,0,0.2-0.1,0.3-0.2c0.1-0.1,0.1-0.2,0.2-0.3C115.8,40.2,115.8,40,115.8,39.9z"/>
		<path class="st0" d="M121.5,38.8c0,0.4,0,0.7-0.1,1s-0.2,0.6-0.4,0.8s-0.4,0.4-0.7,0.5c-0.3,0.1-0.6,0.2-1,0.2
			c-0.4,0-0.7-0.1-0.9-0.2s-0.5-0.3-0.7-0.5c-0.2-0.2-0.3-0.5-0.4-0.8c-0.1-0.3-0.1-0.7-0.1-1c0-0.4,0-0.7,0.1-1s0.2-0.6,0.4-0.8
			s0.4-0.4,0.7-0.5c0.3-0.1,0.6-0.2,1-0.2c0.4,0,0.7,0.1,0.9,0.2c0.3,0.1,0.5,0.3,0.7,0.5c0.2,0.2,0.3,0.5,0.4,0.8
			C121.5,38.1,121.5,38.4,121.5,38.8z M120.8,38.8c0-0.3,0-0.5-0.1-0.8c0-0.2-0.1-0.4-0.2-0.6c-0.1-0.2-0.3-0.3-0.5-0.4
			c-0.2-0.1-0.4-0.1-0.7-0.1c-0.3,0-0.5,0.1-0.7,0.2c-0.2,0.1-0.3,0.2-0.5,0.4c-0.1,0.2-0.2,0.4-0.3,0.6c-0.1,0.2-0.1,0.5-0.1,0.7
			c0,0.3,0,0.5,0.1,0.8c0,0.2,0.1,0.4,0.2,0.6c0.1,0.2,0.3,0.3,0.4,0.4c0.2,0.1,0.4,0.1,0.7,0.1c0.3,0,0.5-0.1,0.7-0.2
			c0.2-0.1,0.3-0.2,0.5-0.4c0.1-0.2,0.2-0.4,0.2-0.6C120.8,39.3,120.8,39.1,120.8,38.8z"/>
		<path class="st0" d="M124.4,41.1C124.4,41.2,124.4,41.2,124.4,41.1c-0.1,0.1-0.1,0.1-0.1,0.1s-0.1,0-0.1,0c0,0-0.1,0-0.2,0
			c-0.1,0-0.1,0-0.1,0c0,0-0.1,0-0.1,0c0,0-0.1,0-0.1,0c0,0,0,0-0.1,0s0,0,0,0s0,0,0,0l-1.6-4.4c0-0.1,0-0.1,0-0.1s0-0.1,0-0.1
			c0,0,0.1,0,0.1,0c0,0,0.1,0,0.2,0c0.1,0,0.1,0,0.2,0s0.1,0,0.1,0s0,0,0,0c0,0,0,0,0,0.1l1.4,4h0l1.3-4c0,0,0,0,0-0.1
			c0,0,0,0,0.1,0c0,0,0.1,0,0.1,0s0.1,0,0.2,0c0.1,0,0.1,0,0.2,0c0,0,0.1,0,0.1,0c0,0,0,0,0,0.1s0,0.1,0,0.1L124.4,41.1z"/>
		<path class="st0" d="M130.4,41.1C130.4,41.2,130.4,41.2,130.4,41.1c-0.1,0.1-0.1,0.1-0.1,0.1s-0.1,0-0.1,0s-0.1,0-0.2,0
			c-0.1,0-0.1,0-0.1,0c0,0-0.1,0-0.1,0c0,0-0.1,0-0.1,0c0,0,0,0-0.1,0c0,0,0,0,0,0s0,0,0,0l-1.6-4.4c0-0.1,0-0.1,0-0.1
			c0,0,0-0.1,0-0.1c0,0,0.1,0,0.1,0c0,0,0.1,0,0.2,0c0.1,0,0.1,0,0.2,0s0.1,0,0.1,0s0,0,0.1,0c0,0,0,0,0,0.1l1.4,4h0l1.3-4
			c0,0,0,0,0-0.1s0,0,0.1,0c0,0,0.1,0,0.1,0c0,0,0.1,0,0.2,0c0.1,0,0.1,0,0.2,0c0,0,0.1,0,0.1,0c0,0,0,0,0,0.1c0,0,0,0.1,0,0.1
			L130.4,41.1z"/>
		<path class="st0" d="M136.1,41c0,0.1,0,0.1,0,0.1c0,0,0,0.1,0,0.1c0,0-0.1,0-0.1,0c0,0-0.1,0-0.2,0c-0.1,0-0.1,0-0.2,0
			c0,0-0.1,0-0.1,0c0,0,0,0-0.1,0c0,0,0,0,0-0.1L135,40h-2l-0.4,1.1c0,0,0,0,0,0.1s0,0-0.1,0c0,0-0.1,0-0.1,0c0,0-0.1,0-0.2,0
			c-0.1,0-0.1,0-0.2,0s-0.1,0-0.1,0s0,0,0-0.1c0,0,0-0.1,0-0.1l1.6-4.4c0,0,0,0,0-0.1c0,0,0,0,0.1,0s0.1,0,0.1,0s0.1,0,0.2,0
			c0.1,0,0.1,0,0.2,0c0.1,0,0.1,0,0.1,0s0.1,0,0.1,0c0,0,0,0,0,0.1L136.1,41z M134,37.1L134,37.1l-0.8,2.4h1.7L134,37.1z"/>
		<path class="st0" d="M140.1,40.6c0,0,0,0.1,0,0.1c0,0,0,0.1,0,0.1c0,0,0,0,0,0.1s0,0-0.1,0.1c0,0-0.1,0.1-0.2,0.1
			c-0.1,0.1-0.2,0.1-0.3,0.1c-0.1,0-0.3,0.1-0.4,0.1c-0.2,0-0.3,0-0.5,0c-0.3,0-0.6-0.1-0.8-0.2c-0.3-0.1-0.5-0.3-0.6-0.5
			s-0.3-0.5-0.4-0.7s-0.1-0.6-0.1-1c0-0.4,0.1-0.7,0.2-1.1c0.1-0.3,0.2-0.6,0.4-0.8c0.2-0.2,0.4-0.4,0.7-0.5
			c0.3-0.1,0.5-0.2,0.9-0.2c0.1,0,0.3,0,0.4,0s0.3,0.1,0.4,0.1c0.1,0,0.2,0.1,0.3,0.1c0.1,0.1,0.1,0.1,0.2,0.1c0,0,0.1,0.1,0.1,0.1
			s0,0,0,0.1s0,0.1,0,0.1c0,0,0,0.1,0,0.1c0,0,0,0.1,0,0.1s0,0.1,0,0.1s0,0,0,0.1c0,0,0,0-0.1,0c0,0-0.1,0-0.1-0.1
			c-0.1,0-0.1-0.1-0.2-0.2c-0.1-0.1-0.2-0.1-0.4-0.2c-0.1,0-0.3-0.1-0.5-0.1c-0.2,0-0.4,0-0.6,0.1c-0.2,0.1-0.3,0.2-0.5,0.4
			s-0.2,0.4-0.3,0.6c-0.1,0.2-0.1,0.5-0.1,0.8s0,0.6,0.1,0.8s0.2,0.4,0.3,0.6c0.1,0.2,0.3,0.3,0.5,0.4s0.4,0.1,0.6,0.1
			c0.2,0,0.4,0,0.5-0.1s0.3-0.1,0.4-0.2c0.1-0.1,0.2-0.1,0.2-0.2c0.1,0,0.1-0.1,0.2-0.1c0,0,0,0,0,0s0,0,0,0c0,0,0,0,0,0.1
			S140.1,40.5,140.1,40.6z"/>
		<path class="st0" d="M144.1,40.6c0,0,0,0.1,0,0.1c0,0,0,0.1,0,0.1c0,0,0,0,0,0.1s0,0-0.1,0.1c0,0-0.1,0.1-0.2,0.1
			c-0.1,0.1-0.2,0.1-0.3,0.1c-0.1,0-0.3,0.1-0.4,0.1c-0.2,0-0.3,0-0.5,0c-0.3,0-0.6-0.1-0.8-0.2c-0.3-0.1-0.5-0.3-0.6-0.5
			s-0.3-0.5-0.4-0.7s-0.1-0.6-0.1-1c0-0.4,0.1-0.7,0.2-1.1c0.1-0.3,0.2-0.6,0.4-0.8c0.2-0.2,0.4-0.4,0.7-0.5
			c0.3-0.1,0.5-0.2,0.9-0.2c0.1,0,0.3,0,0.4,0s0.3,0.1,0.4,0.1c0.1,0,0.2,0.1,0.3,0.1c0.1,0.1,0.1,0.1,0.2,0.1c0,0,0.1,0.1,0.1,0.1
			s0,0,0,0.1s0,0.1,0,0.1c0,0,0,0.1,0,0.1c0,0,0,0.1,0,0.1s0,0.1,0,0.1s0,0,0,0.1c0,0,0,0-0.1,0c0,0-0.1,0-0.1-0.1
			c-0.1,0-0.1-0.1-0.2-0.2c-0.1-0.1-0.2-0.1-0.4-0.2c-0.1,0-0.3-0.1-0.5-0.1c-0.2,0-0.4,0-0.6,0.1c-0.2,0.1-0.3,0.2-0.5,0.4
			s-0.2,0.4-0.3,0.6c-0.1,0.2-0.1,0.5-0.1,0.8s0,0.6,0.1,0.8s0.2,0.4,0.3,0.6c0.1,0.2,0.3,0.3,0.5,0.4s0.4,0.1,0.6,0.1
			c0.2,0,0.4,0,0.5-0.1s0.3-0.1,0.4-0.2c0.1-0.1,0.2-0.1,0.2-0.2c0.1,0,0.1-0.1,0.2-0.1c0,0,0,0,0,0s0,0,0,0c0,0,0,0,0,0.1
			S144.1,40.5,144.1,40.6z"/>
		<path class="st0" d="M145.6,41.1C145.6,41.2,145.6,41.2,145.6,41.1C145.6,41.2,145.6,41.2,145.6,41.1c-0.1,0.1-0.1,0.1-0.2,0.1
			s-0.1,0-0.2,0c-0.1,0-0.1,0-0.2,0c0,0-0.1,0-0.1,0c0,0,0,0-0.1,0c0,0,0,0,0-0.1v-4.6c0,0,0,0,0-0.1c0,0,0,0,0.1,0c0,0,0.1,0,0.1,0
			c0,0,0.1,0,0.1,0c0.1,0,0.1,0,0.2,0c0,0,0.1,0,0.1,0c0,0,0,0,0.1,0c0,0,0,0,0,0.1V41.1z"/>
		<path class="st0" d="M150.5,41c0,0.1,0,0.1,0,0.1c0,0,0,0.1-0.1,0.1s-0.1,0-0.1,0s-0.1,0-0.1,0h-0.2c-0.1,0-0.1,0-0.2,0
			c-0.1,0-0.1,0-0.1-0.1c0,0-0.1-0.1-0.1-0.1c0-0.1-0.1-0.1-0.1-0.2l-1.5-2.7c-0.1-0.1-0.2-0.3-0.2-0.4c-0.1-0.2-0.2-0.3-0.2-0.4h0
			c0,0.2,0,0.4,0,0.5c0,0.2,0,0.4,0,0.5v2.9c0,0,0,0,0,0.1s0,0-0.1,0c0,0-0.1,0-0.1,0c0,0-0.1,0-0.2,0c-0.1,0-0.1,0-0.2,0
			c0,0-0.1,0-0.1,0c0,0,0,0-0.1,0s0,0,0-0.1v-4.4c0-0.1,0-0.2,0.1-0.2c0.1,0,0.1-0.1,0.2-0.1h0.3c0.1,0,0.1,0,0.2,0
			c0.1,0,0.1,0,0.1,0.1c0,0,0.1,0.1,0.1,0.1c0,0.1,0.1,0.1,0.1,0.2l1.1,2.1c0.1,0.1,0.1,0.3,0.2,0.4c0.1,0.1,0.1,0.2,0.2,0.4
			c0.1,0.1,0.1,0.2,0.2,0.3c0.1,0.1,0.1,0.2,0.2,0.3h0c0-0.2,0-0.4,0-0.6c0-0.2,0-0.4,0-0.6v-2.6c0,0,0,0,0,0c0,0,0,0,0.1,0
			c0,0,0.1,0,0.1,0c0,0,0.1,0,0.2,0c0.1,0,0.1,0,0.2,0c0,0,0.1,0,0.1,0c0,0,0,0,0.1,0c0,0,0,0,0,0V41z"/>
		<path class="st0" d="M154.5,41c0,0,0,0.1,0,0.1c0,0,0,0.1,0,0.1c0,0,0,0,0,0c0,0,0,0-0.1,0h-2.3c-0.1,0-0.1,0-0.2-0.1
			c-0.1,0-0.1-0.1-0.1-0.2v-4.2c0-0.1,0-0.2,0.1-0.2c0.1,0,0.1-0.1,0.2-0.1h2.3c0,0,0,0,0.1,0c0,0,0,0,0,0c0,0,0,0.1,0,0.1
			s0,0.1,0,0.1c0,0,0,0.1,0,0.1s0,0.1,0,0.1c0,0,0,0,0,0c0,0,0,0-0.1,0h-1.9v1.5h1.6c0,0,0,0,0.1,0c0,0,0,0,0,0c0,0,0,0,0,0.1
			s0,0.1,0,0.1c0,0,0,0.1,0,0.1c0,0,0,0.1,0,0.1c0,0,0,0,0,0c0,0,0,0-0.1,0h-1.6v1.7h1.9c0,0,0,0,0.1,0c0,0,0,0,0,0c0,0,0,0,0,0.1
			C154.5,40.9,154.5,40.9,154.5,41z"/>
		<path class="st0" d="M159.9,39.9c0,0.2,0,0.4-0.1,0.6c-0.1,0.2-0.2,0.3-0.3,0.4c-0.1,0.1-0.3,0.2-0.5,0.3s-0.4,0.1-0.6,0.1
			c-0.2,0-0.3,0-0.4,0c-0.1,0-0.3-0.1-0.4-0.1c-0.1,0-0.2-0.1-0.3-0.1c-0.1,0-0.1-0.1-0.2-0.1s0-0.1-0.1-0.1s0-0.1,0-0.2
			c0-0.1,0-0.1,0-0.1c0,0,0-0.1,0-0.1c0,0,0,0,0,0c0,0,0,0,0.1,0c0,0,0.1,0,0.1,0.1c0.1,0,0.1,0.1,0.2,0.1c0.1,0.1,0.2,0.1,0.4,0.1
			c0.1,0,0.3,0.1,0.5,0.1c0.1,0,0.3,0,0.4-0.1c0.1,0,0.2-0.1,0.3-0.2c0.1-0.1,0.1-0.2,0.2-0.2c0-0.1,0.1-0.2,0.1-0.3
			c0-0.1,0-0.2-0.1-0.3c-0.1-0.1-0.1-0.2-0.2-0.3c-0.1-0.1-0.2-0.1-0.3-0.2c-0.1-0.1-0.3-0.1-0.4-0.2s-0.3-0.1-0.4-0.2
			c-0.1-0.1-0.2-0.2-0.3-0.3c-0.1-0.1-0.2-0.2-0.2-0.4c-0.1-0.1-0.1-0.3-0.1-0.5c0-0.2,0-0.4,0.1-0.5s0.2-0.3,0.3-0.4
			s0.3-0.2,0.5-0.2c0.2-0.1,0.4-0.1,0.6-0.1c0.1,0,0.2,0,0.3,0c0.1,0,0.2,0,0.3,0.1s0.2,0.1,0.3,0.1c0.1,0,0.1,0.1,0.1,0.1
			s0,0,0,0.1c0,0,0,0,0,0.1c0,0,0,0,0,0.1s0,0.1,0,0.1c0,0,0,0.1,0,0.1s0,0.1,0,0.1s0,0,0,0.1c0,0,0,0,0,0c0,0-0.1,0-0.1-0.1
			c-0.1,0-0.1-0.1-0.2-0.1c-0.1,0-0.2-0.1-0.3-0.1s-0.2-0.1-0.4-0.1c-0.1,0-0.3,0-0.4,0.1s-0.2,0.1-0.2,0.1s-0.1,0.1-0.1,0.2
			c0,0.1,0,0.2,0,0.3c0,0.1,0,0.2,0.1,0.3c0.1,0.1,0.1,0.2,0.2,0.3c0.1,0.1,0.2,0.1,0.4,0.2c0.1,0.1,0.3,0.1,0.4,0.2
			s0.3,0.1,0.4,0.2c0.1,0.1,0.2,0.2,0.4,0.3c0.1,0.1,0.2,0.2,0.2,0.4S159.9,39.7,159.9,39.9z"/>
		<path class="st0" d="M164.4,41c0,0.1,0,0.1,0,0.1c0,0,0,0.1,0,0.1c0,0-0.1,0-0.1,0c0,0-0.1,0-0.2,0c-0.1,0-0.1,0-0.2,0
			c0,0-0.1,0-0.1,0c0,0,0,0-0.1,0c0,0,0,0,0-0.1l-0.4-1.2h-2l-0.4,1.1c0,0,0,0,0,0.1s0,0-0.1,0c0,0-0.1,0-0.1,0c0,0-0.1,0-0.2,0
			c-0.1,0-0.1,0-0.2,0s-0.1,0-0.1,0s0,0,0-0.1c0,0,0-0.1,0-0.1l1.6-4.4c0,0,0,0,0-0.1c0,0,0,0,0.1,0s0.1,0,0.1,0s0.1,0,0.2,0
			c0.1,0,0.1,0,0.2,0c0.1,0,0.1,0,0.1,0s0.1,0,0.1,0c0,0,0,0,0,0.1L164.4,41z M162.3,37.1L162.3,37.1l-0.8,2.4h1.7L162.3,37.1z"/>
		<path class="st0" d="M167.7,36.7c0,0,0,0.1,0,0.1c0,0,0,0.1,0,0.1c0,0,0,0,0,0c0,0,0,0-0.1,0h-1.8v1.6h1.7c0,0,0,0,0,0
			c0,0,0,0,0,0c0,0,0,0,0,0.1s0,0.1,0,0.1c0,0,0,0.1,0,0.1s0,0.1,0,0.1c0,0,0,0,0,0c0,0,0,0,0,0h-1.7v2c0,0,0,0,0,0.1c0,0,0,0-0.1,0
			c0,0-0.1,0-0.1,0s-0.1,0-0.2,0c-0.1,0-0.1,0-0.2,0s-0.1,0-0.1,0c0,0,0,0-0.1,0s0,0,0-0.1v-4.4c0-0.1,0-0.2,0.1-0.2
			c0.1,0,0.1-0.1,0.2-0.1h2.2c0,0,0,0,0.1,0c0,0,0,0,0,0c0,0,0,0.1,0,0.1C167.7,36.7,167.7,36.7,167.7,36.7z"/>
		<path class="st0" d="M171.4,41c0,0,0,0.1,0,0.1c0,0,0,0.1,0,0.1c0,0,0,0,0,0c0,0,0,0-0.1,0h-2.3c-0.1,0-0.1,0-0.2-0.1
			c-0.1,0-0.1-0.1-0.1-0.2v-4.2c0-0.1,0-0.2,0.1-0.2c0.1,0,0.1-0.1,0.2-0.1h2.3c0,0,0,0,0.1,0c0,0,0,0,0,0c0,0,0,0.1,0,0.1
			s0,0.1,0,0.1c0,0,0,0.1,0,0.1s0,0.1,0,0.1c0,0,0,0,0,0c0,0,0,0-0.1,0h-1.9v1.5h1.6c0,0,0,0,0.1,0c0,0,0,0,0,0c0,0,0,0,0,0.1
			s0,0.1,0,0.1c0,0,0,0.1,0,0.1c0,0,0,0.1,0,0.1c0,0,0,0,0,0c0,0,0,0-0.1,0h-1.6v1.7h1.9c0,0,0,0,0.1,0c0,0,0,0,0,0c0,0,0,0,0,0.1
			C171.4,40.9,171.4,40.9,171.4,41z"/>
		<path class="st0" d="M175.4,36.7c0,0,0,0.1,0,0.1c0,0,0,0.1,0,0.1c0,0,0,0,0,0c0,0,0,0-0.1,0h-1.4v4.1c0,0,0,0,0,0.1
			c0,0,0,0-0.1,0c0,0-0.1,0-0.1,0s-0.1,0-0.2,0c-0.1,0-0.1,0-0.2,0c0,0-0.1,0-0.1,0c0,0,0,0-0.1,0c0,0,0,0,0-0.1V37h-1.4
			c0,0,0,0-0.1,0s0,0,0,0c0,0,0,0,0-0.1c0,0,0-0.1,0-0.1c0,0,0-0.1,0-0.1c0,0,0-0.1,0-0.1c0,0,0,0,0,0s0,0,0.1,0h3.4c0,0,0,0,0.1,0
			c0,0,0,0,0,0c0,0,0,0.1,0,0.1C175.4,36.7,175.4,36.7,175.4,36.7z"/>
		<path class="st0" d="M177.7,39.4v1.8c0,0,0,0,0,0.1c0,0,0,0-0.1,0c0,0-0.1,0-0.1,0s-0.1,0-0.2,0c-0.1,0-0.1,0-0.2,0s-0.1,0-0.1,0
			c0,0,0,0-0.1,0c0,0,0,0,0-0.1v-1.8l-1.4-2.7c0-0.1,0-0.1,0-0.1c0,0,0-0.1,0-0.1c0,0,0.1,0,0.1,0c0,0,0.1,0,0.2,0
			c0.1,0,0.1,0,0.2,0c0,0,0.1,0,0.1,0s0,0,0.1,0s0,0,0,0.1l0.7,1.4c0.1,0.1,0.1,0.3,0.2,0.4s0.1,0.3,0.2,0.4h0
			c0.1-0.1,0.1-0.3,0.2-0.4s0.1-0.3,0.2-0.4l0.7-1.4c0,0,0,0,0-0.1s0,0,0.1,0s0.1,0,0.1,0c0,0,0.1,0,0.2,0c0.1,0,0.2,0,0.2,0
			c0.1,0,0.1,0,0.1,0c0,0,0,0,0,0.1s0,0.1,0,0.1L177.7,39.4z"/>
		<path class="st0" d="M185.2,41c0,0.1,0,0.1,0,0.1c0,0,0,0.1,0,0.1c0,0-0.1,0-0.1,0c0,0-0.1,0-0.2,0c-0.1,0-0.1,0-0.2,0
			c0,0-0.1,0-0.1,0c0,0,0,0-0.1,0c0,0,0,0,0-0.1l-0.4-1.2h-2l-0.4,1.1c0,0,0,0,0,0.1s0,0-0.1,0c0,0-0.1,0-0.1,0c0,0-0.1,0-0.2,0
			c-0.1,0-0.1,0-0.2,0s-0.1,0-0.1,0s0,0,0-0.1c0,0,0-0.1,0-0.1l1.6-4.4c0,0,0,0,0-0.1c0,0,0,0,0.1,0s0.1,0,0.1,0s0.1,0,0.2,0
			c0.1,0,0.1,0,0.2,0c0.1,0,0.1,0,0.1,0s0.1,0,0.1,0c0,0,0,0,0,0.1L185.2,41z M183.1,37.1L183.1,37.1l-0.8,2.4h1.7L183.1,37.1z"/>
		<path class="st0" d="M189.6,41c0,0.1,0,0.1,0,0.1c0,0,0,0.1-0.1,0.1s-0.1,0-0.1,0s-0.1,0-0.1,0h-0.2c-0.1,0-0.1,0-0.2,0
			c-0.1,0-0.1,0-0.1-0.1c0,0-0.1-0.1-0.1-0.1c0-0.1-0.1-0.1-0.1-0.2l-1.5-2.7c-0.1-0.1-0.2-0.3-0.2-0.4c-0.1-0.2-0.2-0.3-0.2-0.4h0
			c0,0.2,0,0.4,0,0.5c0,0.2,0,0.4,0,0.5v2.9c0,0,0,0,0,0.1s0,0-0.1,0c0,0-0.1,0-0.1,0c0,0-0.1,0-0.2,0c-0.1,0-0.1,0-0.2,0
			c0,0-0.1,0-0.1,0c0,0,0,0-0.1,0s0,0,0-0.1v-4.4c0-0.1,0-0.2,0.1-0.2c0.1,0,0.1-0.1,0.2-0.1h0.3c0.1,0,0.1,0,0.2,0
			c0.1,0,0.1,0,0.1,0.1c0,0,0.1,0.1,0.1,0.1c0,0.1,0.1,0.1,0.1,0.2l1.1,2.1c0.1,0.1,0.1,0.3,0.2,0.4c0.1,0.1,0.1,0.2,0.2,0.4
			c0.1,0.1,0.1,0.2,0.2,0.3c0.1,0.1,0.1,0.2,0.2,0.3h0c0-0.2,0-0.4,0-0.6c0-0.2,0-0.4,0-0.6v-2.6c0,0,0,0,0,0c0,0,0,0,0.1,0
			c0,0,0.1,0,0.1,0c0,0,0.1,0,0.2,0c0.1,0,0.1,0,0.2,0c0,0,0.1,0,0.1,0c0,0,0,0,0.1,0c0,0,0,0,0,0V41z"/>
		<path class="st0" d="M194.6,38.8c0,0.4-0.1,0.8-0.2,1.1c-0.1,0.3-0.3,0.6-0.5,0.8c-0.2,0.2-0.5,0.4-0.8,0.5
			c-0.3,0.1-0.7,0.2-1.1,0.2h-1c-0.1,0-0.1,0-0.2-0.1c-0.1,0-0.1-0.1-0.1-0.2v-4.2c0-0.1,0-0.2,0.1-0.2c0.1,0,0.1-0.1,0.2-0.1h1.1
			c0.4,0,0.8,0.1,1.1,0.2s0.5,0.3,0.7,0.5c0.2,0.2,0.3,0.4,0.4,0.7C194.6,38.1,194.6,38.4,194.6,38.8z M194,38.8
			c0-0.3,0-0.5-0.1-0.7c-0.1-0.2-0.2-0.4-0.3-0.6s-0.3-0.3-0.5-0.4c-0.2-0.1-0.5-0.1-0.8-0.1h-0.7v3.7h0.7c0.3,0,0.6,0,0.8-0.1
			c0.2-0.1,0.4-0.2,0.5-0.3c0.1-0.2,0.2-0.4,0.3-0.6C193.9,39.4,194,39.1,194,38.8z"/>
		<path class="st0" d="M198,41.1C198,41.2,198,41.2,198,41.1C198,41.2,197.9,41.2,198,41.1c-0.1,0.1-0.1,0.1-0.2,0.1s-0.1,0-0.2,0
			c-0.1,0-0.1,0-0.2,0s-0.1,0-0.1,0c0,0,0,0-0.1,0c0,0,0,0,0-0.1v-4.6c0,0,0,0,0-0.1c0,0,0,0,0.1,0c0,0,0.1,0,0.1,0c0,0,0.1,0,0.1,0
			c0.1,0,0.1,0,0.2,0c0,0,0.1,0,0.1,0c0,0,0,0,0.1,0c0,0,0,0,0,0.1V41.1z"/>
		<path class="st0" d="M204.5,41.1C204.5,41.2,204.5,41.2,204.5,41.1C204.5,41.2,204.5,41.2,204.5,41.1c-0.1,0.1-0.1,0.1-0.2,0.1
			c0,0-0.1,0-0.2,0c-0.1,0-0.1,0-0.2,0s-0.1,0-0.1,0c0,0,0,0-0.1,0c0,0,0,0,0-0.1V37h0l-1.7,4.2c0,0,0,0,0,0c0,0,0,0-0.1,0
			c0,0-0.1,0-0.1,0s-0.1,0-0.1,0c-0.1,0-0.1,0-0.1,0c0,0-0.1,0-0.1,0c0,0,0,0-0.1,0c0,0,0,0,0,0l-1.6-4.2h0v4.1c0,0,0,0,0,0.1
			c0,0,0,0-0.1,0c0,0-0.1,0-0.1,0s-0.1,0-0.2,0c-0.1,0-0.1,0-0.2,0s-0.1,0-0.1,0c0,0,0,0,0,0c0,0,0,0,0-0.1v-4.4
			c0-0.1,0-0.2,0.1-0.2s0.1-0.1,0.2-0.1h0.4c0.1,0,0.2,0,0.2,0c0.1,0,0.1,0,0.2,0.1c0,0,0.1,0.1,0.1,0.1c0,0.1,0.1,0.1,0.1,0.2
			l1.4,3.4h0l1.4-3.4c0-0.1,0.1-0.1,0.1-0.2c0-0.1,0.1-0.1,0.1-0.1c0,0,0.1-0.1,0.1-0.1c0,0,0.1,0,0.2,0h0.4c0,0,0.1,0,0.1,0
			c0,0,0.1,0,0.1,0.1c0,0,0,0.1,0.1,0.1c0,0,0,0.1,0,0.1V41.1z"/>
		<path class="st0" d="M211,41.1C211,41.2,211,41.2,211,41.1C211,41.2,211,41.2,211,41.1c-0.1,0.1-0.1,0.1-0.2,0.1s-0.1,0-0.2,0
			c-0.1,0-0.1,0-0.2,0c0,0-0.1,0-0.1,0c0,0,0,0-0.1,0c0,0,0,0,0-0.1V37h0l-1.7,4.2c0,0,0,0,0,0c0,0,0,0-0.1,0c0,0-0.1,0-0.1,0
			s-0.1,0-0.1,0c-0.1,0-0.1,0-0.1,0c0,0-0.1,0-0.1,0c0,0,0,0-0.1,0c0,0,0,0,0,0l-1.6-4.2h0v4.1c0,0,0,0,0,0.1c0,0,0,0-0.1,0
			c0,0-0.1,0-0.1,0s-0.1,0-0.2,0c-0.1,0-0.1,0-0.2,0s-0.1,0-0.1,0c0,0,0,0,0,0c0,0,0,0,0-0.1v-4.4c0-0.1,0-0.2,0.1-0.2
			s0.1-0.1,0.2-0.1h0.4c0.1,0,0.2,0,0.2,0c0.1,0,0.1,0,0.2,0.1c0,0,0.1,0.1,0.1,0.1c0,0.1,0.1,0.1,0.1,0.2l1.4,3.4h0l1.4-3.4
			c0-0.1,0.1-0.1,0.1-0.2c0-0.1,0.1-0.1,0.1-0.1c0,0,0.1-0.1,0.1-0.1c0,0,0.1,0,0.2,0h0.4c0,0,0.1,0,0.1,0c0,0,0.1,0,0.1,0.1
			c0,0,0,0.1,0.1,0.1c0,0,0,0.1,0,0.1V41.1z"/>
		<path class="st0" d="M216,39.5c0,0.3,0,0.5-0.1,0.8s-0.2,0.4-0.4,0.6c-0.2,0.2-0.4,0.3-0.6,0.4c-0.2,0.1-0.5,0.1-0.8,0.1
			c-0.3,0-0.5,0-0.7-0.1s-0.4-0.2-0.6-0.3c-0.2-0.1-0.3-0.3-0.4-0.6c-0.1-0.2-0.1-0.5-0.1-0.8v-3c0,0,0,0,0-0.1c0,0,0,0,0.1,0
			c0,0,0.1,0,0.1,0c0,0,0.1,0,0.2,0c0.1,0,0.1,0,0.2,0c0,0,0.1,0,0.1,0c0,0,0,0,0,0c0,0,0,0,0,0.1v2.9c0,0.2,0,0.4,0.1,0.6
			c0.1,0.2,0.1,0.3,0.2,0.4c0.1,0.1,0.2,0.2,0.4,0.2c0.1,0.1,0.3,0.1,0.5,0.1c0.2,0,0.4,0,0.5-0.1c0.1-0.1,0.3-0.1,0.4-0.2
			c0.1-0.1,0.2-0.2,0.2-0.4c0.1-0.2,0.1-0.3,0.1-0.6v-2.9c0,0,0,0,0-0.1c0,0,0,0,0.1,0c0,0,0.1,0,0.1,0c0,0,0.1,0,0.2,0
			c0.1,0,0.1,0,0.2,0c0,0,0.1,0,0.1,0c0,0,0,0,0.1,0c0,0,0,0,0,0.1V39.5z"/>
		<path class="st0" d="M220.9,41c0,0.1,0,0.1,0,0.1c0,0,0,0.1-0.1,0.1c0,0-0.1,0-0.1,0c0,0-0.1,0-0.1,0h-0.2c-0.1,0-0.1,0-0.2,0
			c0,0-0.1,0-0.1-0.1s-0.1-0.1-0.1-0.1c0-0.1-0.1-0.1-0.1-0.2l-1.5-2.7c-0.1-0.1-0.2-0.3-0.2-0.4c-0.1-0.2-0.2-0.3-0.2-0.4h0
			c0,0.2,0,0.4,0,0.5c0,0.2,0,0.4,0,0.5v2.9c0,0,0,0,0,0.1c0,0,0,0-0.1,0c0,0-0.1,0-0.1,0c0,0-0.1,0-0.2,0c-0.1,0-0.1,0-0.2,0
			c0,0-0.1,0-0.1,0c0,0,0,0-0.1,0c0,0,0,0,0-0.1v-4.4c0-0.1,0-0.2,0.1-0.2c0.1,0,0.1-0.1,0.2-0.1h0.3c0.1,0,0.1,0,0.2,0
			c0,0,0.1,0,0.1,0.1c0,0,0.1,0.1,0.1,0.1s0.1,0.1,0.1,0.2l1.1,2.1c0.1,0.1,0.1,0.3,0.2,0.4c0.1,0.1,0.1,0.2,0.2,0.4
			c0.1,0.1,0.1,0.2,0.2,0.3c0.1,0.1,0.1,0.2,0.2,0.3h0c0-0.2,0-0.4,0-0.6c0-0.2,0-0.4,0-0.6v-2.6c0,0,0,0,0,0c0,0,0,0,0.1,0
			c0,0,0.1,0,0.1,0c0,0,0.1,0,0.2,0c0.1,0,0.1,0,0.1,0c0,0,0.1,0,0.1,0c0,0,0,0,0.1,0c0,0,0,0,0,0V41z"/>
		<path class="st0" d="M226.2,38.8c0,0.4,0,0.7-0.1,1c-0.1,0.3-0.2,0.6-0.4,0.8s-0.4,0.4-0.7,0.5c-0.3,0.1-0.6,0.2-1,0.2
			c-0.4,0-0.7-0.1-0.9-0.2c-0.3-0.1-0.5-0.3-0.7-0.5c-0.2-0.2-0.3-0.5-0.4-0.8c-0.1-0.3-0.1-0.7-0.1-1c0-0.4,0-0.7,0.1-1
			c0.1-0.3,0.2-0.6,0.4-0.8c0.2-0.2,0.4-0.4,0.7-0.5s0.6-0.2,1-0.2c0.4,0,0.7,0.1,0.9,0.2s0.5,0.3,0.7,0.5c0.2,0.2,0.3,0.5,0.4,0.8
			C226.2,38.1,226.2,38.4,226.2,38.8z M225.5,38.8c0-0.3,0-0.5-0.1-0.8c0-0.2-0.1-0.4-0.2-0.6c-0.1-0.2-0.3-0.3-0.5-0.4
			s-0.4-0.1-0.7-0.1s-0.5,0.1-0.7,0.2c-0.2,0.1-0.3,0.2-0.5,0.4c-0.1,0.2-0.2,0.4-0.3,0.6c-0.1,0.2-0.1,0.5-0.1,0.7
			c0,0.3,0,0.5,0.1,0.8c0,0.2,0.1,0.4,0.2,0.6c0.1,0.2,0.3,0.3,0.4,0.4c0.2,0.1,0.4,0.1,0.7,0.1c0.3,0,0.5-0.1,0.7-0.2
			s0.3-0.2,0.5-0.4c0.1-0.2,0.2-0.4,0.2-0.6C225.5,39.3,225.5,39.1,225.5,38.8z"/>
		<path class="st0" d="M230.8,37.1c0,0,0,0.1,0,0.1s0,0.1,0,0.1s0,0,0,0.1c0,0,0,0,0,0c0,0-0.1,0-0.1-0.1c-0.1,0-0.2-0.1-0.3-0.2
			s-0.3-0.1-0.4-0.2c-0.2,0-0.4-0.1-0.6-0.1c-0.3,0-0.5,0-0.7,0.1c-0.2,0.1-0.4,0.2-0.5,0.4c-0.1,0.2-0.3,0.4-0.3,0.6
			c-0.1,0.2-0.1,0.5-0.1,0.8c0,0.3,0,0.6,0.1,0.8c0.1,0.2,0.2,0.4,0.4,0.6s0.3,0.3,0.5,0.4c0.2,0.1,0.4,0.1,0.7,0.1
			c0.1,0,0.3,0,0.5-0.1c0.2,0,0.3-0.1,0.4-0.2v-1.4h-1.1c0,0-0.1,0-0.1-0.1s0-0.1,0-0.2c0,0,0-0.1,0-0.1s0-0.1,0-0.1c0,0,0,0,0,0
			c0,0,0,0,0.1,0h1.5c0,0,0.1,0,0.1,0s0.1,0,0.1,0c0,0,0,0,0.1,0.1c0,0,0,0.1,0,0.1v1.8c0,0.1,0,0.1,0,0.2s-0.1,0.1-0.1,0.1
			c-0.1,0-0.2,0.1-0.3,0.1c-0.1,0-0.2,0.1-0.4,0.1c-0.1,0-0.2,0.1-0.4,0.1c-0.1,0-0.2,0-0.4,0c-0.4,0-0.7-0.1-1-0.2
			c-0.3-0.1-0.5-0.3-0.7-0.5c-0.2-0.2-0.4-0.5-0.5-0.8c-0.1-0.3-0.2-0.6-0.2-1c0-0.4,0.1-0.7,0.2-1c0.1-0.3,0.3-0.6,0.5-0.8
			c0.2-0.2,0.5-0.4,0.8-0.5c0.3-0.1,0.6-0.2,1-0.2c0.2,0,0.4,0,0.5,0c0.2,0,0.3,0.1,0.4,0.1c0.1,0,0.2,0.1,0.3,0.1s0.1,0.1,0.2,0.1
			c0,0,0.1,0.1,0.1,0.1C230.8,37,230.8,37,230.8,37.1z"/>
		<path class="st0" d="M234.7,41c0,0,0,0.1,0,0.1s0,0.1,0,0.1c0,0,0,0,0,0c0,0,0,0-0.1,0h-2.3c-0.1,0-0.1,0-0.2-0.1
			c-0.1,0-0.1-0.1-0.1-0.2v-4.2c0-0.1,0-0.2,0.1-0.2c0.1,0,0.1-0.1,0.2-0.1h2.3c0,0,0,0,0.1,0c0,0,0,0,0,0c0,0,0,0.1,0,0.1
			c0,0,0,0.1,0,0.1c0,0,0,0.1,0,0.1c0,0,0,0.1,0,0.1c0,0,0,0,0,0c0,0,0,0-0.1,0h-1.9v1.5h1.6c0,0,0,0,0.1,0c0,0,0,0,0,0
			c0,0,0,0,0,0.1c0,0,0,0.1,0,0.1c0,0,0,0.1,0,0.1c0,0,0,0.1,0,0.1c0,0,0,0,0,0c0,0,0,0-0.1,0h-1.6v1.7h1.9c0,0,0,0,0.1,0
			c0,0,0,0,0,0s0,0,0,0.1S234.7,40.9,234.7,41z"/>
		<path class="st0" d="M239.4,41c0,0.1,0,0.1,0,0.1c0,0,0,0.1-0.1,0.1s-0.1,0-0.1,0s-0.1,0-0.1,0h-0.2c-0.1,0-0.1,0-0.2,0
			c-0.1,0-0.1,0-0.1-0.1c0,0-0.1-0.1-0.1-0.1c0-0.1-0.1-0.1-0.1-0.2l-1.5-2.7c-0.1-0.1-0.2-0.3-0.2-0.4c-0.1-0.2-0.2-0.3-0.2-0.4h0
			c0,0.2,0,0.4,0,0.5c0,0.2,0,0.4,0,0.5v2.9c0,0,0,0,0,0.1s0,0-0.1,0c0,0-0.1,0-0.1,0c0,0-0.1,0-0.2,0c-0.1,0-0.1,0-0.2,0
			c0,0-0.1,0-0.1,0c0,0,0,0-0.1,0s0,0,0-0.1v-4.4c0-0.1,0-0.2,0.1-0.2c0.1,0,0.1-0.1,0.2-0.1h0.3c0.1,0,0.1,0,0.2,0
			c0.1,0,0.1,0,0.1,0.1c0,0,0.1,0.1,0.1,0.1c0,0.1,0.1,0.1,0.1,0.2l1.1,2.1c0.1,0.1,0.1,0.3,0.2,0.4c0.1,0.1,0.1,0.2,0.2,0.4
			c0.1,0.1,0.1,0.2,0.2,0.3c0.1,0.1,0.1,0.2,0.2,0.3h0c0-0.2,0-0.4,0-0.6c0-0.2,0-0.4,0-0.6v-2.6c0,0,0,0,0,0c0,0,0,0,0.1,0
			c0,0,0.1,0,0.1,0c0,0,0.1,0,0.2,0c0.1,0,0.1,0,0.2,0c0,0,0.1,0,0.1,0c0,0,0,0,0.1,0c0,0,0,0,0,0V41z"/>
		<path class="st0" d="M241.3,41.1C241.3,41.2,241.3,41.2,241.3,41.1C241.3,41.2,241.3,41.2,241.3,41.1c-0.1,0.1-0.1,0.1-0.2,0.1
			s-0.1,0-0.2,0c-0.1,0-0.1,0-0.2,0c0,0-0.1,0-0.1,0c0,0,0,0-0.1,0c0,0,0,0,0-0.1v-4.6c0,0,0,0,0-0.1c0,0,0,0,0.1,0c0,0,0.1,0,0.1,0
			c0,0,0.1,0,0.1,0c0.1,0,0.1,0,0.2,0c0,0,0.1,0,0.1,0c0,0,0,0,0.1,0c0,0,0,0,0,0.1V41.1z"/>
		<path class="st0" d="M245.8,40.6c0,0,0,0.1,0,0.1c0,0,0,0.1,0,0.1c0,0,0,0,0,0.1c0,0,0,0-0.1,0.1s-0.1,0.1-0.2,0.1
			c-0.1,0.1-0.2,0.1-0.3,0.1c-0.1,0-0.3,0.1-0.4,0.1c-0.2,0-0.3,0-0.5,0c-0.3,0-0.6-0.1-0.8-0.2c-0.3-0.1-0.5-0.3-0.6-0.5
			s-0.3-0.5-0.4-0.7s-0.1-0.6-0.1-1c0-0.4,0.1-0.7,0.2-1.1c0.1-0.3,0.2-0.6,0.4-0.8s0.4-0.4,0.7-0.5c0.3-0.1,0.5-0.2,0.9-0.2
			c0.1,0,0.3,0,0.4,0s0.3,0.1,0.4,0.1s0.2,0.1,0.3,0.1c0.1,0.1,0.1,0.1,0.2,0.1c0,0,0.1,0.1,0.1,0.1c0,0,0,0,0,0.1c0,0,0,0.1,0,0.1
			c0,0,0,0.1,0,0.1c0,0,0,0.1,0,0.1s0,0.1,0,0.1c0,0,0,0,0,0.1c0,0,0,0-0.1,0c0,0-0.1,0-0.1-0.1c-0.1,0-0.1-0.1-0.2-0.2
			c-0.1-0.1-0.2-0.1-0.4-0.2c-0.1,0-0.3-0.1-0.5-0.1c-0.2,0-0.4,0-0.6,0.1c-0.2,0.1-0.3,0.2-0.5,0.4s-0.2,0.4-0.3,0.6
			c-0.1,0.2-0.1,0.5-0.1,0.8s0,0.6,0.1,0.8c0.1,0.2,0.2,0.4,0.3,0.6s0.3,0.3,0.5,0.4c0.2,0.1,0.4,0.1,0.6,0.1c0.2,0,0.4,0,0.5-0.1
			s0.3-0.1,0.4-0.2c0.1-0.1,0.2-0.1,0.2-0.2c0.1,0,0.1-0.1,0.2-0.1c0,0,0,0,0,0s0,0,0,0c0,0,0,0,0,0.1S245.8,40.5,245.8,40.6z"/>
		<path class="st0" d="M247.3,41.1C247.3,41.2,247.3,41.2,247.3,41.1C247.3,41.2,247.3,41.2,247.3,41.1c-0.1,0.1-0.1,0.1-0.2,0.1
			s-0.1,0-0.2,0c-0.1,0-0.1,0-0.2,0s-0.1,0-0.1,0c0,0,0,0-0.1,0c0,0,0,0,0-0.1v-4.6c0,0,0,0,0-0.1c0,0,0,0,0.1,0c0,0,0.1,0,0.1,0
			c0,0,0.1,0,0.1,0c0.1,0,0.1,0,0.2,0c0,0,0.1,0,0.1,0c0,0,0,0,0.1,0c0,0,0,0,0,0.1V41.1z"/>
		<path class="st0" d="M251.6,36.7c0,0,0,0.1,0,0.1c0,0,0,0.1,0,0.1c0,0,0,0,0,0c0,0,0,0-0.1,0h-1.4v4.1c0,0,0,0,0,0.1
			c0,0,0,0-0.1,0c0,0-0.1,0-0.1,0s-0.1,0-0.2,0c-0.1,0-0.1,0-0.2,0c0,0-0.1,0-0.1,0c0,0,0,0-0.1,0c0,0,0,0,0-0.1V37h-1.4
			c0,0,0,0-0.1,0c0,0,0,0,0,0c0,0,0,0,0-0.1c0,0,0-0.1,0-0.1c0,0,0-0.1,0-0.1c0,0,0-0.1,0-0.1c0,0,0,0,0,0c0,0,0,0,0.1,0h3.4
			c0,0,0,0,0.1,0c0,0,0,0,0,0c0,0,0,0.1,0,0.1C251.6,36.7,251.6,36.7,251.6,36.7z"/>
		<path class="st0" d="M253.9,39.4v1.8c0,0,0,0,0,0.1c0,0,0,0-0.1,0c0,0-0.1,0-0.1,0s-0.1,0-0.2,0c-0.1,0-0.1,0-0.2,0s-0.1,0-0.1,0
			c0,0,0,0-0.1,0c0,0,0,0,0-0.1v-1.8l-1.4-2.7c0-0.1,0-0.1,0-0.1c0,0,0-0.1,0-0.1c0,0,0.1,0,0.1,0c0,0,0.1,0,0.2,0
			c0.1,0,0.1,0,0.2,0c0,0,0.1,0,0.1,0s0,0,0.1,0s0,0,0,0.1l0.7,1.4c0.1,0.1,0.1,0.3,0.2,0.4s0.1,0.3,0.2,0.4h0
			c0.1-0.1,0.1-0.3,0.2-0.4s0.1-0.3,0.2-0.4l0.7-1.4c0,0,0,0,0-0.1s0,0,0.1,0s0.1,0,0.1,0c0,0,0.1,0,0.2,0c0.1,0,0.2,0,0.2,0
			c0.1,0,0.1,0,0.1,0c0,0,0,0,0,0.1s0,0.1,0,0.1L253.9,39.4z"/>
	</g>
	<g>
		<g>
			<path class="st1" d="M27,14.9c0.7,0,1.4,0.1,2.2,0.4c3.8,1.2,6.5,4.7,6.8,8.5c0.3,0.1,0.5,0.2,0.8,0.3c3.3-0.4,6.8-0.4,10.1-0.4
				c1.1,0,2.1,0,3,0c1.6,0,3.3-0.1,5.1-0.2c2.1-0.1,4.2-0.3,6.3-0.3c3.3,0,6.6,0.3,9.5,1.5c2.4,1,7.7,5.3,9.8,8
				c0.8,1.1,0.8,2.1-0.2,2.9c0,0,0,0-0.1,0c0,0.1,0,0.1,0.1,0.1c0.6,0.8,0.3,1.4-0.4,2.5c-0.2,0.2-0.4,0.4-0.7,0.4
				c-0.2,0-0.3,0-0.5-0.1L78.4,38c-0.4-0.3-0.5-0.7-0.2-1.1c0-0.1,0.1-0.1,0.1-0.2c-0.1-0.2-0.2-0.4-0.2-0.7c-0.2-1,0.3-1.6,0.6-2
				c-2-2.5-6.9-6.4-8.7-7.1c-2.6-1.1-5.6-1.4-8.7-1.4c-2,0-4.1,0.1-6.1,0.3C53.4,25.9,51.7,26,50,26c-1,0-2,0-3.1,0
				c-1.5,0-3.1,0-4.8,0.1c1.7,0.9,3.5,2,4.9,3.5c0.2,0.2,0.9,0.9,0.8,1.8c0,0.8-0.5,1.3-0.9,1.6c-1.5,1.4-3.5,2.1-5.8,2.2
				c-0.1,0-0.2,0-0.3,0c-1.9,0-4-0.5-5.7-1.4c-3.4-1.7-5.4-3.6-7.7-6.1c-7.6,0-11.9-3.3-13-4.8c-0.6-0.8-0.8-1.9-0.6-2.9
				c0.2-0.9,0.7-1.6,1.4-2c0.5-0.3,1.1-0.5,1.8-0.5c0.5,0,1.2,0.1,1.8,0.3c1.5,0.5,3,1.4,4.4,2.5c-0.4-0.7-0.5-1.4-0.4-2.1
				c0.2-1.4,1.3-2.6,2.8-3.1C26,15,26.5,14.9,27,14.9 M33.5,23.1c-0.5-2.5-2.5-4.7-5-5.5c-0.5-0.2-1-0.3-1.5-0.3
				c-0.3,0-0.6,0-0.8,0.1c-0.6,0.2-1,0.6-1.1,1.1c-0.1,0.8,1,1.7,2.1,2.2C29.1,21.7,31.3,22.4,33.5,23.1 M24.9,25.2
				c-2.1-2.1-4.5-4.3-7-5.1c-0.5-0.1-0.8-0.2-1.1-0.2c-0.3,0-0.4,0.1-0.5,0.1c-0.1,0.1-0.2,0.2-0.3,0.4c-0.1,0.3,0,0.8,0.2,1
				c0.2,0.3,1.6,1.7,4.4,2.7C22,24.7,23.4,25,24.9,25.2 M28.4,25.3c1,0,2.1-0.1,3.2-0.3c-1.9-0.6-3.7-1.2-5.5-2.1
				c-0.1,0-0.1-0.1-0.2-0.1C26.8,23.7,27.6,24.5,28.4,25.3 M40.8,32.8c1.6,0,3.2-0.4,4.5-1.5c0,0,0,0,0,0c-2.4-2.5-5.9-3.8-8.7-4.7
				c-0.9,0.1-1.7,0.3-2.5,0.4c-1.3,0.3-2.5,0.5-3.6,0.6c1.6,1.6,3.3,2.9,5.6,4.1C37.5,32.3,39.2,32.8,40.8,32.8 M27,14.2
				c-0.6,0-1.2,0.1-1.7,0.3c-1.7,0.5-3.1,2-3.2,3.7c0,0.2,0,0.4,0,0.6c-1.1-0.7-2.1-1.2-3.1-1.5c-0.7-0.2-1.4-0.3-2-0.3
				c-0.8,0-1.5,0.2-2.1,0.6c-0.9,0.5-1.5,1.4-1.7,2.4c-0.2,1.2,0,2.5,0.7,3.4c1,1.4,5.3,5,13.2,5.1c2.1,2.2,4.2,4.3,7.7,6
				c1.9,0.9,4,1.5,6,1.5c0.1,0,0.2,0,0.3,0c2.5-0.1,4.6-0.9,6.2-2.3c0.3-0.2,1.1-1,1.1-2.1c0.1-1.2-0.7-2-1-2.3
				c-0.8-0.9-1.8-1.6-2.9-2.4c0.8,0,1.5,0,2.3,0c1.1,0,2.1,0,3.1,0c1.7,0,3.5-0.1,5.2-0.3c2-0.1,4.1-0.3,6.1-0.3
				c3.5,0,6.2,0.4,8.4,1.3c1.6,0.7,6,4.1,8.1,6.5c-0.5,0.7-0.5,1.5-0.4,2.1c0,0.2,0.1,0.3,0.1,0.5c-0.4,0.7-0.2,1.5,0.4,1.9l0.7,0.5
				c0.2,0.2,0.5,0.3,0.8,0.3c0.5,0,0.9-0.2,1.2-0.7c0.6-0.9,1.1-1.8,0.6-2.9c0.9-1,0.9-2.3-0.1-3.5c-2.2-2.8-7.6-7.2-10.1-8.2
				c-2.7-1.1-5.8-1.6-9.8-1.6c-2.1,0-4.3,0.1-6.4,0.3c-1.8,0.1-3.4,0.2-5.1,0.2c-1,0-2,0-3,0c-3.1,0-6.7,0-10,0.4
				c-0.1,0-0.2-0.1-0.3-0.1c-0.5-3.9-3.4-7.5-7.2-8.7C28.6,14.4,27.8,14.2,27,14.2L27,14.2z M32.4,22.1c-1.7-0.5-3.4-1.1-5-1.9
				c-1.2-0.6-1.8-1.3-1.7-1.5c0-0.1,0.2-0.4,0.6-0.5C26.6,18,26.8,18,27,18c0.4,0,0.8,0.1,1.3,0.2C30.1,18.8,31.7,20.3,32.4,22.1
				L32.4,22.1z M16.8,20.6c0,0,0.1,0,0.1,0c0.2,0,0.4,0,0.9,0.2c1.8,0.6,3.6,2,5.2,3.4c-0.7-0.2-1.3-0.3-2-0.6
				c-2.9-1.1-4.1-2.5-4.1-2.5C16.8,21,16.7,20.8,16.8,20.6L16.8,20.6z M32,28c0.7-0.1,1.5-0.3,2.3-0.4c0.7-0.2,1.5-0.3,2.3-0.4
				c2.5,0.8,5.5,2,7.7,4c-1.2,0.8-2.5,0.9-3.5,0.9c-1.5,0-3.1-0.4-4.4-1.1C34.8,30.2,33.4,29.3,32,28L32,28z"/>
		</g>
	</g>
	<g>
		<g>
			<path class="st2" d="M101,13.5h2.5l-7.4,17.5h-0.6l-7.5-17.5h2.5l5.2,12.2L101,13.5z"/>
			<path class="st2" d="M112.3,23.6l-1.9-1.1c-1.2-0.7-2-1.4-2.5-2.1c-0.5-0.7-0.8-1.5-0.8-2.4c0-1.4,0.5-2.5,1.4-3.3
				c1-0.9,2.2-1.3,3.7-1.3c1.5,0,2.8,0.4,4,1.2v2.8c-1.3-1.2-2.6-1.8-4-1.8c-0.8,0-1.5,0.2-2,0.6c-0.5,0.4-0.8,0.9-0.8,1.4
				c0,0.5,0.2,1,0.6,1.5c0.4,0.5,1,0.9,1.9,1.4l1.9,1.1c2.1,1.3,3.2,2.9,3.2,4.8c0,1.4-0.5,2.5-1.4,3.4c-0.9,0.9-2.1,1.3-3.6,1.3
				c-1.7,0-3.3-0.5-4.7-1.6v-3.2c1.3,1.7,2.9,2.6,4.7,2.6c0.8,0,1.4-0.2,1.9-0.7c0.5-0.4,0.8-1,0.8-1.6
				C114.5,25.5,113.8,24.5,112.3,23.6z"/>
			<path class="st2" d="M133.2,13.5h2.5l-7.4,17.5h-0.6l-7.5-17.5h2.5l5.2,12.2L133.2,13.5z"/>
			<path class="st2" d="M149.8,13.5h9.9v2.2h-7.4V21h7.1v2.2h-7.1v5.4h7.6v2.2h-10.1V13.5z"/>
			<path class="st2" d="M170.9,30.9H165V13.5h4.6c1.4,0,2.6,0.2,3.4,0.6c0.8,0.4,1.4,0.9,1.8,1.6c0.4,0.7,0.6,1.5,0.6,2.3
				c0,1.7-0.9,2.9-2.7,3.7c1.3,0.2,2.3,0.8,3,1.6c0.8,0.8,1.1,1.8,1.1,2.9c0,0.9-0.2,1.7-0.7,2.4c-0.5,0.7-1.1,1.3-2,1.7
				C173.4,30.6,172.3,30.9,170.9,30.9z M169.7,15.7h-2.1v5.2h1.7c1.3,0,2.3-0.3,2.8-0.8c0.6-0.5,0.8-1.2,0.8-2
				C172.9,16.5,171.8,15.7,169.7,15.7z M169.9,23.1h-2.3v5.5h2.5c1.4,0,2.3-0.1,2.8-0.3c0.5-0.2,0.9-0.5,1.2-1s0.4-0.9,0.4-1.4
				c0-0.5-0.2-1-0.5-1.5c-0.3-0.4-0.8-0.8-1.3-1S171.1,23.1,169.9,23.1z"/>
			<path class="st2" d="M190.5,13.2c2.7,0,4.9,0.9,6.7,2.6c1.8,1.7,2.7,3.8,2.7,6.4s-0.9,4.7-2.7,6.4c-1.8,1.7-4.1,2.5-6.8,2.5
				c-2.6,0-4.8-0.8-6.5-2.5c-1.7-1.7-2.6-3.8-2.6-6.3c0-2.6,0.9-4.7,2.6-6.4C185.6,14.1,187.8,13.2,190.5,13.2z M190.6,15.6
				c-2,0-3.6,0.6-4.9,1.9c-1.3,1.2-1.9,2.8-1.9,4.8c0,1.9,0.6,3.4,1.9,4.7c1.3,1.2,2.9,1.9,4.8,1.9c1.9,0,3.6-0.6,4.9-1.9
				c1.3-1.3,1.9-2.9,1.9-4.7c0-1.8-0.6-3.4-1.9-4.6C194.1,16.2,192.5,15.6,190.6,15.6z"/>
			<path class="st2" d="M215.5,13.5h2.5l-7.4,17.5H210l-7.5-17.5h2.5l5.2,12.2L215.5,13.5z"/>
			<path class="st2" d="M225.9,13.4h1.8l7.8,17.5h-2.5l-2.3-5.2h-7.4l-2.2,5.2h-2.6L225.9,13.4z M229.6,23.5l-2.8-6.3l-2.6,6.3
				H229.6z"/>
			<path class="st2" d="M253.9,26.8v2.7c-1.8,1-3.9,1.5-6.3,1.5c-1.9,0-3.6-0.4-4.9-1.2c-1.4-0.8-2.4-1.9-3.2-3.2s-1.2-2.9-1.2-4.4
				c0-2.5,0.9-4.7,2.7-6.4c1.8-1.7,4-2.6,6.7-2.6c1.8,0,3.9,0.5,6.1,1.4v2.7c-2-1.2-4-1.7-6-1.7c-2,0-3.6,0.6-5,1.9s-2,2.8-2,4.7
				c0,1.9,0.6,3.5,1.9,4.7c1.3,1.2,3,1.8,5,1.8C249.8,28.8,251.9,28.1,253.9,26.8z"/>
		</g>
	</g>
	<path class="st3" d="M79.3,37.4c0.6-0.9,0.4-1.1,0-1.6c-0.6-0.8,1.3-1.5,0.4-2.5c-2.3-2.7-4.7-4.7-7.7-6.7c-1.3-0.8-2.7-1.2-4-1.7
		c-1.7-0.5-3.5-0.5-5.2-0.7c-3,0-5.9,0.3-8.9,0.5c-4.4,0.2-8.5-0.2-12.9,0.2c-3.5,0.3-6.7,1-10.2,1.5c-4.5,0.7-9,0.5-13.1-2.2
		c-0.5-0.3-1.2-0.5-1.7-1c-1.2-1-2-3.2-0.5-4.2c1.3-0.7,2.7-0.2,3.9,0.3c2.3,1.2,4.4,2.8,6,4.9c0.3,0.3,0.7,0.5,1,0.8
		c3,3.5,6.2,6.7,10.4,8.4c1.7,0.5,3.3,0.8,5,0.7c1.5-0.2,2.7-0.7,4-1.5c0.5-0.3,0.8-0.8,0.7-1.5c-1-1.7-2.7-2.8-4.5-3.9
		c-4.2-2-8.7-2.7-13.1-4.2c-2.2-0.8-6-2.2-5-5.4c1.8-2.5,5.5-1.7,7.7,0.2c2,1.8,3.2,4.4,3.1,7"/>
</g>
</svg>
